<svg width="5" height="14" viewBox="0 0 5 14" fill="none" xmlns="http://www.w3.org/2000/svg">
<rect width="5" height="14" fill="#F5F8FA"/>
<g id="WE Page17" clip-path="url(#clip0_759:14)">
<rect width="1440" height="900" transform="translate(-1347 -610)" fill="white"/>
<g id="Group 181">
<g id="Union" filter="url(#filter0_d_759:14)">
<path fill-rule="evenodd" clip-rule="evenodd" d="M-13 -133C-17.4183 -133 -21 -129.418 -21 -125V-111H-309C-314.523 -111 -319 -106.523 -319 -101V292H57V-101C57 -106.523 52.5228 -111 47 -111H31V-125C31 -129.418 27.4183 -133 23 -133H-13Z" fill="white"/>
</g>
<path id="Rectangle 1" d="M-319 -56H57V228H-319V-56Z" fill="#F5F5F5"/>
<g id="Group 182">
<g id="ic_pause" opacity="0.5">
<path id="Vector" d="M3.55 1V0.95H3.5H1H0.95V1V13V13.05H1H3.5H3.55V13V1ZM3.465 13.95H1.035C0.773762 13.95 0.523223 13.8462 0.3385 13.6615C0.153776 13.4768 0.05 13.2262 0.05 12.965V1.035C0.05 0.773762 0.153776 0.523223 0.3385 0.3385C0.523223 0.153776 0.773762 0.05 1.035 0.05H3.46988C3.73025 0.0512894 3.97952 0.155617 4.16318 0.340176C4.34688 0.524763 4.45 0.774584 4.45 1.035V12.965C4.45 13.2262 4.34622 13.4768 4.1615 13.6615C3.97678 13.8462 3.72624 13.95 3.465 13.95Z" fill="#535E76" stroke="#F0F8FF" stroke-width="0.1"/>
</g>
</g>
</g>
</g>
<defs>
<filter id="filter0_d_759:14" x="-327" y="-137" width="392" height="441" filterUnits="userSpaceOnUse" color-interpolation-filters="sRGB">
<feFlood flood-opacity="0" result="BackgroundImageFix"/>
<feColorMatrix in="SourceAlpha" type="matrix" values="0 0 0 0 0 0 0 0 0 0 0 0 0 0 0 0 0 0 127 0" result="hardAlpha"/>
<feOffset dy="4"/>
<feGaussianBlur stdDeviation="4"/>
<feComposite in2="hardAlpha" operator="out"/>
<feColorMatrix type="matrix" values="0 0 0 0 0 0 0 0 0 0 0 0 0 0 0 0 0 0 0.25 0"/>
<feBlend mode="normal" in2="BackgroundImageFix" result="effect1_dropShadow_759:14"/>
<feBlend mode="normal" in="SourceGraphic" in2="effect1_dropShadow_759:14" result="shape"/>
</filter>
<clipPath id="clip0_759:14">
<rect width="1440" height="900" fill="white" transform="translate(-1347 -610)"/>
</clipPath>
</defs>
</svg>
