<svg width="100%" height="100%" viewBox="0 0 18 18" fill="none" xmlns="http://www.w3.org/2000/svg">
<path d="M18 18H16.7143V14.7857C16.7133 13.9335 16.3743 13.1166 15.7717 12.514C15.1691 11.9114 14.3522 11.5724 13.5 11.5714V10.2857C14.6931 10.2871 15.8369 10.7616 16.6805 11.6052C17.5241 12.4488 17.9986 13.5926 18 14.7857V18Z" fill="#535E76"/>
<path d="M12.8571 18H11.5714V14.7857C11.5704 13.9335 11.2314 13.1166 10.6289 12.514C10.0263 11.9114 9.20931 11.5724 8.35714 11.5714H4.5C3.64783 11.5724 2.83086 11.9114 2.22828 12.514C1.62571 13.1166 1.28674 13.9335 1.28571 14.7857V18H0V14.7857C0.00136116 13.5926 0.475904 12.4488 1.31952 11.6052C2.16314 10.7616 3.30694 10.2871 4.5 10.2857H8.35714C9.5502 10.2871 10.694 10.7616 11.5376 11.6052C12.3812 12.4488 12.8558 13.5926 12.8571 14.7857V18Z" fill="#535E76"/>
<path d="M11.5713 0V1.28571C12.4238 1.28571 13.2413 1.62436 13.8441 2.22716C14.4469 2.82995 14.7856 3.64752 14.7856 4.5C14.7856 5.35248 14.4469 6.17005 13.8441 6.77284C13.2413 7.37564 12.4238 7.71429 11.5713 7.71429V9C12.7648 9 13.9094 8.52589 14.7533 7.68198C15.5972 6.83807 16.0713 5.69347 16.0713 4.5C16.0713 3.30653 15.5972 2.16193 14.7533 1.31802C13.9094 0.474106 12.7648 0 11.5713 0Z" fill="#535E76"/>
<path d="M6.42871 1.28571C7.06444 1.28571 7.68589 1.47423 8.21447 1.82742C8.74306 2.18061 9.15504 2.68261 9.39833 3.26995C9.64161 3.85728 9.70526 4.50357 9.58124 5.12708C9.45721 5.75059 9.15108 6.32332 8.70156 6.77284C8.25203 7.22237 7.6793 7.5285 7.05579 7.65252C6.43228 7.77655 5.78599 7.71289 5.19866 7.46961C4.61133 7.22633 4.10932 6.81435 3.75613 6.28576C3.40294 5.75717 3.21443 5.13573 3.21443 4.5C3.21443 3.64752 3.55307 2.82995 4.15587 2.22716C4.75867 1.62436 5.57623 1.28571 6.42871 1.28571ZM6.42871 0C5.5387 0 4.66867 0.26392 3.92865 0.758387C3.18863 1.25285 2.61185 1.95566 2.27126 2.77792C1.93066 3.60019 1.84155 4.50499 2.01518 5.37791C2.18881 6.25082 2.6174 7.05264 3.24673 7.68198C3.87607 8.31132 4.67789 8.7399 5.55081 8.91353C6.42372 9.08717 7.32852 8.99805 8.15079 8.65746C8.97306 8.31686 9.67586 7.74009 10.1703 7.00007C10.6648 6.26004 10.9287 5.39002 10.9287 4.5C10.9287 3.30653 10.4546 2.16193 9.61069 1.31802C8.76678 0.474106 7.62219 0 6.42871 0Z" fill="#535E76"/>
</svg>
