<svg width="19.65" height="19.99" viewBox="0 0 20 20" fill="none" xmlns="http://www.w3.org/2000/svg">
<path d="M19.0055 15.4485L17.9253 15.6025C19.2189 13.6961 19.814 11.4012 19.6098 9.10637C19.4056 6.81155 18.4147 4.6578 16.8048 3.00975C15.1949 1.36171 13.0649 0.320632 10.7755 0.06279C8.48607 -0.195052 6.17789 0.346179 4.24173 1.59485C4.12291 1.67323 4.03984 1.79534 4.01057 1.93464C3.9813 2.07393 4.0082 2.21915 4.08542 2.33872C4.16264 2.45829 4.28394 2.54255 4.42295 2.57316C4.56196 2.60378 4.70743 2.57829 4.82774 2.50223C6.55463 1.39379 8.61114 0.915265 10.65 1.14746C12.6888 1.37965 14.5851 2.30833 16.0185 3.77668C17.4519 5.24503 18.3347 7.16307 18.5178 9.20691C18.7009 11.2507 18.173 13.2951 17.0233 14.9949L16.8586 13.8309C16.8385 13.6877 16.7624 13.5583 16.6469 13.4712C16.5315 13.3841 16.3861 13.3464 16.2429 13.3664C16.0996 13.3865 15.9702 13.4626 15.8831 13.5781C15.796 13.6936 15.7583 13.8389 15.7784 13.9822L16.1213 16.4126C16.1397 16.5424 16.2046 16.6611 16.304 16.7465C16.4033 16.832 16.5304 16.8784 16.6614 16.8771H16.7371L19.1486 16.5369C19.2919 16.5172 19.4214 16.4414 19.5088 16.3262C19.5962 16.2109 19.6342 16.0657 19.6145 15.9225C19.5948 15.7792 19.519 15.6497 19.4038 15.5623C19.2885 15.475 19.1433 15.4369 19.0001 15.4566L19.0055 15.4485Z" fill="#545F77"/>
<path d="M14.8139 17.4956C13.087 18.6071 11.0293 19.0881 8.9887 18.8572C6.94809 18.6264 5.04982 17.6978 3.61494 16.2287C2.18005 14.7595 1.29661 12.8398 1.11403 10.7943C0.93144 8.7488 1.46091 6.70302 2.6129 5.00292L2.77763 6.16685C2.79597 6.29662 2.86088 6.4153 2.96025 6.50076C3.05962 6.58622 3.18668 6.63263 3.31774 6.63134H3.39605C3.53785 6.61126 3.66588 6.53569 3.75197 6.42124C3.83806 6.30679 3.87517 6.16283 3.85514 6.02102L3.51217 3.59865C3.4921 3.45684 3.41653 3.32882 3.30208 3.24273C3.18762 3.15664 3.04366 3.11953 2.90186 3.13956L0.482185 3.47982C0.338941 3.49952 0.209387 3.57531 0.122025 3.69053C0.0346629 3.80575 -0.00335132 3.95095 0.0163448 4.09419C0.036041 4.23744 0.111834 4.36699 0.227051 4.45435C0.342267 4.54172 0.487469 4.57973 0.630714 4.56003L1.71092 4.4061C0.423548 6.31276 -0.166453 8.60525 0.0405409 10.8965C0.247535 13.1877 1.23884 15.3374 2.84708 16.9824C4.45533 18.6275 6.58197 19.6672 8.86795 19.926C11.1539 20.1848 13.4592 19.6468 15.3945 18.4029C15.5133 18.3245 15.5964 18.2024 15.6256 18.0631C15.6549 17.9238 15.628 17.7786 15.5508 17.6591C15.4736 17.5395 15.3523 17.4552 15.2133 17.4246C15.0743 17.394 14.9288 17.4195 14.8085 17.4956H14.8139Z" fill="#545F77"/>
<path d="M14 9.99612C14 10.9619 13.6499 11.895 13.0145 12.6228C12.3791 13.3506 11.5013 13.8239 10.5436 13.9552C9.58581 14.0864 8.6129 13.8667 7.80478 13.3367C6.99666 12.8067 6.40802 12.0022 6.14773 11.0721C5.88744 10.142 5.97312 9.14918 6.38892 8.27731C6.80471 7.40544 7.5225 6.7135 8.4095 6.32949C9.2965 5.94547 10.2927 5.89537 11.2138 6.18844C12.1349 6.4815 12.9187 7.09791 13.42 7.92365L10 9.99612H14Z" fill="#DC0000"/>
<path d="M12.026 8.42649C12.4597 8.94017 12.6713 9.60014 12.6156 10.2651C12.5598 10.93 12.2411 11.5472 11.7277 11.9843C11.2144 12.4214 10.5471 12.6439 9.86873 12.604C9.19039 12.5641 8.55491 12.265 8.09835 11.7708C7.64178 11.2766 7.40041 10.6266 7.4259 9.95987C7.4514 9.29314 7.74173 8.66269 8.23475 8.20351C8.72778 7.74434 9.38431 7.49291 10.0638 7.50307C10.7433 7.51323 11.3917 7.78416 11.8702 8.25787L10.0242 10.0557L12.026 8.42649Z" fill="white"/>
<path d="M12.3206 7.0374L7.4171 10.7384C7.35562 10.7848 7.3403 10.8748 7.38287 10.9395L7.95667 11.8104C7.99924 11.875 8.08359 11.8898 8.14507 11.8434L13.0485 8.14237C13.11 8.09597 13.1253 8.00597 13.0828 7.94135L12.509 7.07038C12.4664 7.00576 12.382 6.99099 12.3206 7.0374Z" fill="#DC0000"/>
</svg>
