<svg width="100%" height="100%" viewBox="0 0 20 20" fill="none" xmlns="http://www.w3.org/2000/svg">
<path d="M19 11.125H16.0907C15.7924 11.1251 15.5063 11.2436 15.2954 11.4546L12.5796 14.1704C12.3687 14.3814 12.0826 14.4999 11.7843 14.5H8.21575C7.91741 14.4999 7.6313 14.3814 7.42037 14.1704L4.70463 11.4546C4.4937 11.2436 4.20759 11.1251 3.90925 11.125H1M19 11.125V3.25C19 2.65326 18.7629 2.08097 18.341 1.65901C17.919 1.23705 17.3467 1 16.75 1H3.25C2.65326 1 2.08097 1.23705 1.65901 1.65901C1.23705 2.08097 1 2.65326 1 3.25V11.125H19ZM19 11.125V16.75C19 17.3467 18.7629 17.919 18.341 18.341C17.919 18.7629 17.3467 19 16.75 19H3.25C2.65326 19 2.08097 18.7629 1.65901 18.341C1.23705 17.919 1 17.3467 1 16.75V11.125H19Z" stroke="#535E76" stroke-linecap="round" stroke-linejoin="round"/>
</svg>
