<svg width="5" height="14" viewBox="0 0 5 14" fill="none" xmlns="http://www.w3.org/2000/svg">
<path d="M4.05 1V0.95H4H1.5H1.45V1V13V13.05H1.5H4H4.05V13V1ZM3.965 13.95H1.535C1.27376 13.95 1.02322 13.8462 0.8385 13.6615C0.653776 13.4768 0.55 13.2262 0.55 12.965V1.035C0.55 0.773762 0.653776 0.523223 0.8385 0.3385C1.02322 0.153776 1.27376 0.05 1.535 0.05H3.96988C4.23025 0.0512894 4.47952 0.155617 4.66318 0.340176C4.84688 0.524763 4.95 0.774584 4.95 1.035V12.965C4.95 13.2262 4.84622 13.4768 4.6615 13.6615C4.47678 13.8462 4.22624 13.95 3.965 13.95Z" fill="#535E76" stroke="#F0F8FF" stroke-width="0.1"/>
</svg>
