<svg width="100%" height="100%" viewBox="0 0 48 9" fill="none" xmlns="http://www.w3.org/2000/svg">
<path fill-rule="evenodd" clip-rule="evenodd" d="M4 6.5L2.23664 7.42705L2.57342 5.46353L1.14683 4.07295L3.11832 3.78647L4 2L4.88168 3.78647L6.85317 4.07295L5.42659 5.46353L5.76336 7.42705L4 6.5Z" fill="#E5D437" stroke="#E5D437"/>
<path fill-rule="evenodd" clip-rule="evenodd" d="M14 6.5L12.2366 7.42705L12.5734 5.46353L11.1468 4.07295L13.1183 3.78647L14 2L14.8817 3.78647L16.8532 4.07295L15.4266 5.46353L15.7634 7.42705L14 6.5Z" fill="#E5D437" stroke="#E5D437"/>
<path fill-rule="evenodd" clip-rule="evenodd" d="M24 6.5L22.2366 7.42705L22.5734 5.46353L21.1468 4.07295L23.1183 3.78647L24 2L24.8817 3.78647L26.8532 4.07295L25.4266 5.46353L25.7634 7.42705L24 6.5Z" fill="#E5D437" stroke="#E5D437"/>
<path fill-rule="evenodd" clip-rule="evenodd" d="M34 6.73158L32.1459 7.70634L32.5 5.64177L31 4.17963L33.0729 3.87841L34 2L34.9271 3.87841L37 4.17963L35.5 5.64177L35.8541 7.70634L34 6.73158Z" fill="#E5D437" stroke="#E5D437"/>
<path fill-rule="evenodd" clip-rule="evenodd" d="M44 6.73158L42.1459 7.70634L42.5 5.64177L41 4.17963L43.0729 3.87841L44 2L44.9271 3.87841L47 4.17963L45.5 5.64177L45.8541 7.70634L44 6.73158Z" stroke="#E5D437" stroke-width="0.5"/>
</svg>
