<svg width="100%" height="100%" viewBox="0 0 19 20" fill="none" xmlns="http://www.w3.org/2000/svg">
<path d="M1 1.56917C1 1.41822 1.05997 1.27345 1.16671 1.16671C1.27345 1.05997 1.41822 1 1.56917 1H17.506C17.657 1 17.8018 1.05997 17.9085 1.16671C18.0153 1.27345 18.0752 1.41822 18.0752 1.56917V14.6602C18.0752 14.7349 18.0605 14.8089 18.0319 14.878C18.0033 14.947 17.9614 15.0098 17.9085 15.0626C17.8557 15.1155 17.7929 15.1574 17.7239 15.186C17.6548 15.2146 17.5808 15.2293 17.506 15.2293H13.5787C13.5009 15.2292 13.4239 15.2451 13.3524 15.2759C13.2809 15.3068 13.2166 15.3519 13.1632 15.4086L9.95216 18.8208C9.89894 18.8774 9.83471 18.9225 9.76341 18.9533C9.69212 18.9841 9.61528 19 9.53761 19C9.45994 19 9.3831 18.9841 9.31181 18.9533C9.24051 18.9225 9.17628 18.8774 9.12306 18.8208L5.91197 15.4086C5.85865 15.3519 5.79427 15.3068 5.72281 15.2759C5.65134 15.2451 5.57431 15.2292 5.49647 15.2293H1.56917C1.41822 15.2293 1.27345 15.1694 1.16671 15.0626C1.05997 14.9559 1 14.8111 1 14.6602V1.56917Z" stroke="#2F73EA"/>
<path d="M9.53766 4.79449L10.8894 7.2372L13.3321 8.58899L10.8894 9.94078L9.53766 12.3835L8.18587 9.94078L5.74316 8.58899L8.18587 7.2372L9.53766 4.79449Z" stroke="#2F73EA" stroke-linecap="round" stroke-linejoin="round"/>
</svg>
