<svg width="26" height="26" viewBox="0 0 26 26" fill="none" xmlns="http://www.w3.org/2000/svg">
<circle cx="12.7647" cy="12.7647" r="11.7647" fill="#2F73EA" stroke="white"/>
<path d="M8.979 15.135C9.426 15.135 9.837 15.06 10.212 14.91C10.59 14.76 10.893 14.538 11.121 14.244C11.349 13.95 11.463 13.5855 11.463 13.1505C11.463 12.8355 11.4045 12.5745 11.2875 12.3675C11.1705 12.1575 11.022 11.9895 10.842 11.8635C10.665 11.7375 10.4805 11.64 10.2885 11.571C10.0995 11.499 9.93 11.442 9.78 11.4L8.583 11.0625C8.43 11.0205 8.2755 10.968 8.1195 10.905C7.9665 10.839 7.8375 10.7505 7.7325 10.6395C7.6275 10.5285 7.575 10.383 7.575 10.203C7.575 10.017 7.6335 9.855 7.7505 9.717C7.8705 9.576 8.0295 9.4665 8.2275 9.3885C8.4285 9.3105 8.649 9.2745 8.889 9.2805C9.261 9.2835 9.5895 9.39 9.8745 9.6C10.1625 9.807 10.341 10.0935 10.41 10.4595L11.418 10.2885C11.286 9.6915 10.998 9.228 10.554 8.898C10.11 8.565 9.5595 8.3955 8.9025 8.3895C8.4675 8.3865 8.0745 8.457 7.7235 8.601C7.3725 8.745 7.0935 8.955 6.8865 9.231C6.6825 9.507 6.5805 9.846 6.5805 10.248C6.5805 10.596 6.654 10.878 6.801 11.094C6.948 11.31 7.131 11.478 7.35 11.598C7.572 11.718 7.791 11.8095 8.007 11.8725L9.6675 12.363C9.9075 12.435 10.1025 12.537 10.2525 12.669C10.4055 12.798 10.482 12.9795 10.482 13.2135C10.482 13.4295 10.4145 13.6155 10.2795 13.7715C10.1475 13.9245 9.972 14.043 9.753 14.127C9.534 14.208 9.294 14.2485 9.033 14.2485C8.613 14.2485 8.2455 14.139 7.9305 13.92C7.6155 13.701 7.4085 13.392 7.3095 12.993L6.3285 13.1415C6.4005 13.5525 6.5565 13.908 6.7965 14.208C7.0365 14.505 7.344 14.7345 7.719 14.8965C8.094 15.0555 8.514 15.135 8.979 15.135ZM14.9028 15.135C15.3498 15.135 15.7608 15.06 16.1358 14.91C16.5138 14.76 16.8168 14.538 17.0448 14.244C17.2728 13.95 17.3868 13.5855 17.3868 13.1505C17.3868 12.8355 17.3283 12.5745 17.2113 12.3675C17.0943 12.1575 16.9458 11.9895 16.7658 11.8635C16.5888 11.7375 16.4043 11.64 16.2123 11.571C16.0233 11.499 15.8538 11.442 15.7038 11.4L14.5068 11.0625C14.3538 11.0205 14.1993 10.968 14.0433 10.905C13.8903 10.839 13.7613 10.7505 13.6563 10.6395C13.5513 10.5285 13.4988 10.383 13.4988 10.203C13.4988 10.017 13.5573 9.855 13.6743 9.717C13.7943 9.576 13.9533 9.4665 14.1513 9.3885C14.3523 9.3105 14.5728 9.2745 14.8128 9.2805C15.1848 9.2835 15.5133 9.39 15.7983 9.6C16.0863 9.807 16.2648 10.0935 16.3338 10.4595L17.3418 10.2885C17.2098 9.6915 16.9218 9.228 16.4778 8.898C16.0338 8.565 15.4833 8.3955 14.8263 8.3895C14.3913 8.3865 13.9983 8.457 13.6473 8.601C13.2963 8.745 13.0173 8.955 12.8103 9.231C12.6063 9.507 12.5043 9.846 12.5043 10.248C12.5043 10.596 12.5778 10.878 12.7248 11.094C12.8718 11.31 13.0548 11.478 13.2738 11.598C13.4958 11.718 13.7148 11.8095 13.9308 11.8725L15.5913 12.363C15.8313 12.435 16.0263 12.537 16.1763 12.669C16.3293 12.798 16.4058 12.9795 16.4058 13.2135C16.4058 13.4295 16.3383 13.6155 16.2033 13.7715C16.0713 13.9245 15.8958 14.043 15.6768 14.127C15.4578 14.208 15.2178 14.2485 14.9568 14.2485C14.5368 14.2485 14.1693 14.139 13.8543 13.92C13.5393 13.701 13.3323 13.392 13.2333 12.993L12.2523 13.1415C12.3243 13.5525 12.4803 13.908 12.7203 14.208C12.9603 14.505 13.2678 14.7345 13.6428 14.8965C14.0178 15.0555 14.4378 15.135 14.9028 15.135Z" fill="white"/>
</svg>
