<svg width="26" height="26" viewBox="0 0 26 26" fill="none" xmlns="http://www.w3.org/2000/svg">
<circle cx="12.765" cy="12.765" r="11.765" fill="white" stroke="#ECECEC"/>
<path d="M9.205 14.7985H9.961V13.1335H11.6215V12.3775H9.961V10.7215H9.205V12.3775H7.54V13.1335H9.205V14.7985ZM12.6092 15.9955H16.9922V15.1H14.0627L15.9392 13.426C16.1732 13.219 16.3682 13.027 16.5242 12.85C16.6802 12.673 16.7972 12.481 16.8752 12.274C16.9532 12.064 16.9922 11.812 16.9922 11.518C16.9922 11.107 16.8977 10.741 16.7087 10.42C16.5227 10.099 16.2677 9.847 15.9437 9.664C15.6197 9.478 15.2537 9.385 14.8457 9.385C14.4167 9.385 14.0342 9.475 13.6982 9.655C13.3652 9.832 13.1042 10.0795 12.9152 10.3975C12.7262 10.7125 12.6317 11.08 12.6317 11.5H13.5947C13.5917 11.281 13.6427 11.08 13.7477 10.897C13.8557 10.711 14.0027 10.5625 14.1887 10.4515C14.3747 10.3375 14.5877 10.2805 14.8277 10.2805C15.1757 10.2805 15.4622 10.3975 15.6872 10.6315C15.9122 10.8655 16.0247 11.1565 16.0247 11.5045C16.0247 11.6875 15.9827 11.8705 15.8987 12.0535C15.8177 12.2335 15.6632 12.4255 15.4352 12.6295L12.6137 15.1585L12.6092 15.9955Z" fill="#65676D"/>
</svg>
