<svg width="26" height="26" viewBox="0 0 26 26" fill="none" xmlns="http://www.w3.org/2000/svg">
<circle cx="12.7647" cy="12.7647" r="11.7647" fill="#363E4F" stroke="white"/>
<path d="M9.151 16H10.5055L12.6115 9.52H11.635L9.817 15.0505L8.0215 9.52H7.045L9.151 16ZM13.2902 16H14.2307V13.6735H15.9497L17.0792 16H18.1547L16.9307 13.489C17.2997 13.33 17.5757 13.0825 17.7587 12.7465C17.9417 12.4105 18.0332 12.0265 18.0332 11.5945C18.0332 11.0695 17.8982 10.6195 17.6282 10.2445C17.3582 9.8695 16.9517 9.64 16.4087 9.556C16.3247 9.541 16.2362 9.532 16.1432 9.529C16.0502 9.523 15.9722 9.52 15.9092 9.52H13.2902V16ZM14.2307 12.7825V10.4065H15.8732C15.9332 10.4065 15.9992 10.4095 16.0712 10.4155C16.1462 10.4215 16.2167 10.4335 16.2827 10.4515C16.5707 10.5175 16.7747 10.6645 16.8947 10.8925C17.0147 11.1205 17.0747 11.3545 17.0747 11.5945C17.0747 11.8315 17.0147 12.0655 16.8947 12.2965C16.7747 12.5245 16.5707 12.673 16.2827 12.742C16.2167 12.757 16.1462 12.7675 16.0712 12.7735C15.9992 12.7795 15.9332 12.7825 15.8732 12.7825H14.2307Z" fill="white"/>
</svg>
