<svg width="25" height="26" viewBox="0 0 25 26" fill="none" xmlns="http://www.w3.org/2000/svg">
<circle cx="12.647" cy="12.7647" r="11.7647" fill="#FF7F00" stroke="white"/>
<path d="M6.21789 15H7.15839V12.6735H8.87739L10.0069 15H11.0824L9.85839 12.489C10.2274 12.33 10.5034 12.0825 10.6864 11.7465C10.8694 11.4105 10.9609 11.0265 10.9609 10.5945C10.9609 10.0695 10.8259 9.6195 10.5559 9.2445C10.2859 8.8695 9.87939 8.64 9.33639 8.556C9.25239 8.541 9.16389 8.532 9.07089 8.529C8.97789 8.523 8.89989 8.52 8.83689 8.52H6.21789V15ZM7.15839 11.7825V9.4065H8.80089C8.86089 9.4065 8.92689 9.4095 8.99889 9.4155C9.07389 9.4215 9.14439 9.4335 9.21039 9.4515C9.49839 9.5175 9.70239 9.6645 9.82239 9.8925C9.94239 10.1205 10.0024 10.3545 10.0024 10.5945C10.0024 10.8315 9.94239 11.0655 9.82239 11.2965C9.70239 11.5245 9.49839 11.673 9.21039 11.742C9.14439 11.757 9.07389 11.7675 8.99889 11.7735C8.92689 11.7795 8.86089 11.7825 8.80089 11.7825H7.15839ZM14.6001 15.135C15.3471 15.135 15.9651 14.946 16.4541 14.568C16.9461 14.19 17.2881 13.6815 17.4801 13.0425L16.5261 12.786C16.3971 13.239 16.1721 13.5945 15.8511 13.8525C15.5301 14.1105 15.1131 14.2395 14.6001 14.2395C14.1411 14.2395 13.7571 14.136 13.4481 13.929C13.1421 13.722 12.9111 13.4325 12.7551 13.0605C12.6021 12.6885 12.5271 12.255 12.5301 11.76C12.5331 11.265 12.6111 10.8315 12.7641 10.4595C12.9171 10.0875 13.1466 9.798 13.4526 9.591C13.7586 9.384 14.1411 9.2805 14.6001 9.2805C15.1131 9.2805 15.5301 9.4095 15.8511 9.6675C16.1721 9.9255 16.3971 10.281 16.5261 10.734L17.4801 10.4775C17.2881 9.8385 16.9461 9.33 16.4541 8.952C15.9651 8.574 15.3471 8.385 14.6001 8.385C13.9521 8.385 13.4001 8.5275 12.9441 8.8125C12.4881 9.0975 12.1386 9.4935 11.8956 10.0005C11.6556 10.5045 11.5356 11.091 11.5356 11.76C11.5356 12.429 11.6556 13.017 11.8956 13.524C12.1386 14.028 12.4881 14.4225 12.9441 14.7075C13.4001 14.9925 13.9521 15.135 14.6001 15.135Z" fill="white"/>
</svg>
